<?xml version="1.0" encoding="utf-8"?>
<!-- Generator: Adobe Illustrator 26.0.0, SVG Export Plug-In . SVG Version: 6.00 Build 0)  -->
<svg version="1.1" id="Capa_1" xmlns="http://www.w3.org/2000/svg" xmlns:xlink="http://www.w3.org/1999/xlink" x="0px" y="0px"
	 viewBox="0 0 1920 485" style="enable-background:new 0 0 1920 485;" xml:space="preserve">
<style type="text/css">
	.st0{fill:#35C1DE;}
	.st1{fill:#1B89AF;}
	.st2{fill:#FFFFFF;}
	.st3{font-family:'Poppins-Thin';}
	.st4{font-size:140.0342px;}
</style>
<g>
	<g>
		<g>
			<g>
				<g>
					<path class="st0" d="M1883.4,326.9L1883.4,326.9c-19.3-15.2-47-24.9-83.9-22.6c-0.7-5.5-1.3-10.7-2.3-16.2c0-0.3,0-0.6,0-1
						c-1.3-8.4-2.3-16.8-3.7-25.2c0-0.3,0-0.6,0-1c0,0,0,0,0-0.3c-11-68.9-28.6-129.4-77.6-129.4c-142.9,0-304.7,336.4-204.8,336.4
						c51.3,0,114.9-61.5,184.2-106.1c0.3-0.3,0.7-0.6,1.3-0.6c2.7-1.6,5-3.2,7.7-4.9c0.3,0,0.3-0.3,0.7-0.3c2.7-1.6,5.3-3.2,8-4.9
						c0.3-0.3,0.7-0.3,1.3-0.6c2.3-1.3,5-2.9,7.3-4.2c0.3-0.3,0.7-0.3,1-0.6c2.7-1.6,5.3-2.9,8-4.5c0.3-0.3,0.7-0.3,1-0.6
						c2.3-1.3,5-2.6,7.3-3.6c0.3-0.3,1-0.3,1.3-0.6c2.7-1.3,5.3-2.6,8.3-3.9c0.3,0,0.7-0.3,0.7-0.3c2.3-1,5-1.9,7.3-3.2
						c0.3-0.3,1-0.3,1.3-0.6c2.7-1,5.7-1.9,8.3-2.9l0,0c19.3,73.4,32.3,159.8,88.9,159.8c40,0,64.9-44,64.9-89.3
						C1920,374.2,1908.3,346.3,1883.4,326.9z M1692.5,224.4c2.3,0,4.7,0,6.7,0.3c0,0,0,0,0.3,0c2,0.3,4,0.6,6,1.3h0.3
						c2,0.6,3.7,1.3,5.7,1.9c0,0,0.3,0,0.3,0.3c1.7,0.6,3.3,1.6,5,2.6l0.3,0.3c1.7,1,3.3,2.3,4.7,3.2c0.3,0,0.3,0.3,0.7,0.3
						c1.7,1.3,3,2.6,4.3,3.9c0.3,0.3,0.3,0.3,0.7,0.6c1.3,1.3,2.7,2.9,4,4.5c0,0.3,0.3,0.3,0.3,0.6c1.3,1.6,2.7,3.2,3.7,4.9
						c0,0.3,0.3,0.3,0.3,0.6c1.3,1.6,2.3,3.6,3.7,5.5c0,0.3,0.3,0.6,0.3,0.6c1,1.9,2.3,3.9,3.3,5.8c0,0.3,0.3,0.6,0.3,0.6
						c1,1.9,2,4.2,3,6.5c0,0.3,0.3,0.6,0.3,1c1,2.3,2,4.5,3,6.8c0,0.3,0.3,0.6,0.3,1c1,2.3,2,4.5,2.7,7.1c0,0.3,0.3,0.6,0.3,1
						c1,2.6,1.7,4.9,2.7,7.4c0,0.3,0.3,0.6,0.3,1c1,2.6,1.7,5.2,2.3,7.8c0,0.3,0.3,0.6,0.3,1c0.7,2.6,1.7,5.2,2.3,8.1c0,0,0,0,0,0.3
						c-0.3,0-0.7,0.3-1.3,0.3c-1.3,0.3-2.3,0.6-3.7,1c-0.7,0.3-1.7,0.6-2.3,0.6c-2.3,0.6-4.7,1.6-7,2.3c-0.7,0.3-1.3,0.3-2,0.6
						c-1.3,0.3-2.7,1-4,1.3c-0.7,0.3-1.3,0.6-2.3,1c-1.3,0.6-2.7,1-4,1.6c-0.7,0.3-1.3,0.6-2,0.6c-4.7,1.9-9.3,3.9-14,5.8
						c-0.3,0.3-1,0.3-1.3,0.6c-1.7,0.6-3,1.3-4.7,1.9c-0.3,0.3-0.7,0.3-1,0.6c-5,2.3-10.3,4.9-15.3,7.4h-0.3c-1.7,1-3.3,1.6-5.3,2.6
						c0,0,0,0-0.3,0c-6,3.2-12,6.5-18,9.7l0,0c-83.9,46.9-157.5,106.4-157.5,51.4C1516.4,345,1627.6,224.4,1692.5,224.4z
						 M1862.1,456.3c-40.3,0-51-66-60.9-138.4c0.3,0,0.3,0,0.7,0c1,0,2,0,3-0.3c1,0,1.7,0,2.7-0.3c1,0,2,0,3,0c1,0,1.7,0,2.7,0
						c1,0,2,0,3,0c1,0,1.7,0,2.7,0s2,0,3,0c1,0,1.7,0,2.7,0.3c1,0,2,0.3,3,0.3c1,0,1.7,0.3,2.7,0.3c1.7,0.3,3.3,0.6,5,1
						c1,0,1.7,0.3,2.7,0.6c1,0.3,1.7,0.3,2.7,0.6c0.7,0.3,1.7,0.3,2.3,0.6c1,0.3,1.7,0.3,2.7,0.6c0.7,0.3,1.7,0.3,2.3,0.6
						c1,0.3,1.7,0.6,2.3,1c0.7,0.3,1.7,0.6,2.3,1c0.7,0.3,1.7,0.6,2.3,1c0.7,0.3,1.7,0.6,2.3,1c0.7,0.3,1.3,0.6,2.3,1
						c1,0.3,1.7,1,2.7,1.3c0.7,0.3,1.3,0.6,2,1c1.3,0.6,2.7,1.6,4,2.3c0.7,0.3,1,0.6,1.7,1c1,0.6,1.7,1,2.7,1.6
						c21,14.6,34.6,37.5,34.6,66C1907,424,1887.7,456.3,1862.1,456.3z"/>
				</g>
			</g>
			<g>
				<path class="st1" d="M1907,400.4c0,23.6-19.3,56-45,56c-50.6,0-54.3-104.5-68.9-195c-11-68.9-100.6-36.9-100.6-36.9
					c97.9,0,63.6,261,162.5,261C1913.3,485.4,1907,400.4,1907,400.4z"/>
			</g>
		</g>
		<g>
			<g>
				<g>
					<g>
						<path class="st2" d="M152.1,216.1L240.7,375h-54.3l-16.3-28.5H69.8l-15,28.5h-55l87.3-158.8H152.1z M151.4,312.9l-32-58.9
							l-31,58.9L151.4,312.9z"/>
					</g>
					<g>
						<path class="st2" d="M294.6,216.1v78c0,10-1.3,28.1,6.7,35.6c8,7.4,21,6.5,28,6.5h40.3c4.3,0,18,1.3,25.3-6.1
							c6.7-6.8,5.3-20.4,5.3-34.6v-79.2h49.6l0,94.1c0,18.1,1.7,35.6-12.7,50.1c-15.7,15.5-35.6,14.6-56.9,14.6l-73.3,0
							c-17.3,0-31.6,1.3-47.6-14.9c-15.3-15.5-13.7-42.7-13.7-55l0-88.9L294.6,216.1z"/>
					</g>
					<g>
						<path class="st2" d="M665.6,229.7c10,12.3,10.7,48.2,7,60.5c-4,15.2-13.7,18.1-25.3,22.3c6,1.6,9.7,2.9,13.3,4.9
							c15.3,9.1,13.3,32,13.3,45.3v12l-49.6,0c0-18.1,1-31.7-5-36.5c-5.3-5.2-19.6-4.5-25.3-4.5h-68.6v41.1h-49.6V215.8h141.9
							C635.6,216.1,654,215.2,665.6,229.7z M596.7,292.8c7,0,22.3,0.6,28-7.4c2.7-4.2,2.7-17.5,0-22.6c-5-9.1-20.6-7.8-27.3-7.8
							l-71.6,0v37.8L596.7,292.8L596.7,292.8z"/>
					</g>
					<g>
						<path class="st2" d="M714.2,360.7c-13.3-12.9-13.3-39.8-13.3-50.5v-32.7c0-11.3-1-34,13.3-47.5c15-14.6,38.3-13.9,57.6-13.9
							h79.9c19.6,0,42.6-0.3,57.6,13.9c13,12,11.3,36.2,11.3,47.5v32.7c0,13.6,1.7,37.5-11.3,50.5c-13.7,13.6-47.6,14.2-58.9,14.2
							h-77.3C757.9,375,727.9,374.3,714.2,360.7z M869.1,325.5c1.7-2.3,2.3-10.4,2.3-19.4v-21.3c0-8.7-0.7-16.8-2.3-19.4
							c-7-12-22-10.4-30.3-10.4h-55.6c-8,0-23.3-1.3-30.3,10.4c-1.7,2.3-2.3,9.4-2.3,19.4v21.3c0,9.1,0.7,16.8,2.3,19.4
							c7,12,22,10.4,30.3,10.4h55.6C846.8,335.8,861.8,337.4,869.1,325.5z"/>
					</g>
					<g>
						<path class="st2" d="M1137.8,229.7c10,12.3,10.7,48.2,7,60.5c-4,15.2-13.7,18.1-25.3,22.3c6,1.6,9.7,2.9,13.3,4.9
							c15.3,9.1,13.3,32,13.3,45.3v12h-50c0-18.1,1-31.7-5-36.5c-5.3-5.2-19.6-4.5-25.3-4.5l-68.6,0v41.1h-49.6V215.8l141.9,0
							C1107.5,216.1,1126.2,215.2,1137.8,229.7z M1068.9,292.8c7,0,22.3,0.6,28-7.4c2.7-4.2,2.7-17.5,0-22.6
							c-5-9.1-20.6-7.8-27.3-7.8H998v37.8L1068.9,292.8L1068.9,292.8z"/>
					</g>
					<g>
						<path class="st2" d="M1314.7,216.1l88.6,158.8H1349l-16.3-28.5l-100.2,0l-15,28.5h-54.6l87.3-158.8H1314.7z M1314,312.9
							l-32-58.9l-31,58.9H1314z"/>
					</g>
				</g>
			</g>
			<g>
				<g>
					<path class="st2" d="M725.8,424.2h-16.6v43h-3.4v-43h-16.7v-2.8h36.6V424.2z"/>
				</g>
				<g>
					<path class="st2" d="M782,464.4l-0.1,2.7h-28.2v-45.8H782v2.7h-24.8v18.5h20.6v2.7h-20.6v19.1H782z"/>
				</g>
				<g>
					<path class="st2" d="M845.3,459.4c0.2,0,0.4,0.1,0.6,0.2l1.3,1.4c-1,1-2,1.9-3.2,2.7c-1.1,0.8-2.4,1.5-3.8,2.1
						c-1.4,0.6-2.9,1-4.5,1.3c-1.6,0.3-3.4,0.5-5.4,0.5c-3.3,0-6.3-0.6-9-1.7c-2.7-1.1-5.1-2.7-7-4.7c-2-2-3.5-4.5-4.5-7.4
						c-1.1-2.9-1.6-6.1-1.6-9.6c0-3.5,0.6-6.6,1.7-9.5c1.1-2.9,2.7-5.3,4.7-7.4c2-2.1,4.4-3.7,7.2-4.8c2.8-1.1,5.9-1.7,9.3-1.7
						c3.2,0,6.1,0.5,8.6,1.5c2.5,1,4.7,2.3,6.8,4.1l-1,1.5c-0.2,0.3-0.5,0.4-0.8,0.4c-0.3,0-0.7-0.2-1.3-0.7c-0.6-0.5-1.4-1-2.5-1.6
						c-1.1-0.6-2.4-1.1-4-1.6c-1.6-0.5-3.5-0.7-5.7-0.7c-2.8,0-5.4,0.5-7.8,1.4c-2.4,0.9-4.4,2.3-6.1,4.1c-1.7,1.8-3,3.9-4,6.5
						c-1,2.5-1.4,5.4-1.4,8.6c0,3.2,0.5,6.1,1.4,8.7c1,2.5,2.3,4.7,4,6.5c1.7,1.8,3.7,3.1,6,4c2.3,0.9,4.8,1.4,7.4,1.4
						c1.7,0,3.2-0.1,4.5-0.3c1.3-0.2,2.5-0.5,3.6-1c1.1-0.4,2.1-1,3.1-1.6s1.9-1.4,2.8-2.2c0.1-0.1,0.2-0.2,0.3-0.2
						C845.1,459.4,845.2,459.4,845.3,459.4z"/>
				</g>
				<g>
					<path class="st2" d="M912.7,421.3v45.8h-3.4v-21.9h-29.5v21.9h-3.4v-45.8h3.4v21.3h29.5v-21.3H912.7z"/>
				</g>
				<g>
					<path class="st2" d="M982.9,421.3v45.8h-1.6c-0.3,0-0.5,0-0.7-0.1c-0.2-0.1-0.4-0.3-0.6-0.5l-30.6-39.7
						c0.1,0.6,0.1,1.3,0.1,1.8v38.5h-3v-45.8h1.7c0.3,0,0.5,0,0.7,0.1c0.2,0.1,0.3,0.2,0.5,0.5l30.5,39.6c-0.1-0.6-0.1-1.3-0.1-1.8
						v-38.4H982.9z"/>
				</g>
				<g>
					<path class="st2" d="M1058.7,444.2c0,3.5-0.5,6.7-1.6,9.6c-1.1,2.9-2.6,5.3-4.6,7.4c-2,2-4.3,3.6-7.1,4.7
						c-2.8,1.1-5.8,1.7-9.1,1.7s-6.4-0.6-9.1-1.7c-2.8-1.1-5.1-2.7-7.1-4.7c-2-2-3.5-4.5-4.6-7.4c-1.1-2.9-1.6-6.1-1.6-9.6
						c0-3.5,0.5-6.7,1.6-9.6c1.1-2.9,2.6-5.3,4.6-7.4c2-2,4.3-3.6,7.1-4.7c2.8-1.1,5.8-1.7,9.1-1.7s6.4,0.6,9.1,1.7s5.1,2.7,7.1,4.7
						c2,2,3.5,4.5,4.6,7.4C1058.1,437.5,1058.7,440.7,1058.7,444.2z M1055.2,444.2c0-3.2-0.5-6.1-1.4-8.6c-0.9-2.5-2.2-4.7-3.9-6.5
						c-1.7-1.8-3.7-3.1-6-4.1c-2.3-0.9-4.9-1.4-7.7-1.4c-2.8,0-5.4,0.5-7.7,1.4c-2.3,0.9-4.3,2.3-6,4.1c-1.7,1.8-3,3.9-3.9,6.5
						c-0.9,2.5-1.4,5.4-1.4,8.6c0,3.2,0.5,6.1,1.4,8.6c0.9,2.5,2.2,4.7,3.9,6.5c1.7,1.8,3.7,3.1,6,4c2.3,0.9,4.9,1.4,7.7,1.4
						c2.8,0,5.4-0.5,7.7-1.4c2.3-0.9,4.3-2.3,6-4s3-3.9,3.9-6.5C1054.7,450.3,1055.2,447.4,1055.2,444.2z"/>
				</g>
				<g>
					<path class="st2" d="M1115.3,464.3v2.8h-25.7v-45.8h3.4v43H1115.3z"/>
				</g>
				<g>
					<path class="st2" d="M1182.2,444.2c0,3.5-0.5,6.7-1.6,9.6c-1.1,2.9-2.6,5.3-4.6,7.4c-2,2-4.3,3.6-7.1,4.7
						c-2.8,1.1-5.8,1.7-9.1,1.7s-6.4-0.6-9.1-1.7c-2.8-1.1-5.1-2.7-7.1-4.7c-2-2-3.5-4.5-4.6-7.4c-1.1-2.9-1.6-6.1-1.6-9.6
						c0-3.5,0.5-6.7,1.6-9.6c1.1-2.9,2.6-5.3,4.6-7.4c2-2,4.3-3.6,7.1-4.7c2.8-1.1,5.8-1.7,9.1-1.7s6.4,0.6,9.1,1.7s5.1,2.7,7.1,4.7
						c2,2,3.5,4.5,4.6,7.4C1181.7,437.5,1182.2,440.7,1182.2,444.2z M1178.7,444.2c0-3.2-0.5-6.1-1.4-8.6c-0.9-2.5-2.2-4.7-3.9-6.5
						c-1.7-1.8-3.7-3.1-6-4.1c-2.3-0.9-4.9-1.4-7.7-1.4c-2.8,0-5.4,0.5-7.7,1.4c-2.3,0.9-4.3,2.3-6,4.1c-1.7,1.8-3,3.9-3.9,6.5
						c-0.9,2.5-1.4,5.4-1.4,8.6c0,3.2,0.5,6.1,1.4,8.6c0.9,2.5,2.2,4.7,3.9,6.5s3.7,3.1,6,4c2.3,0.9,4.9,1.4,7.7,1.4
						c2.8,0,5.4-0.5,7.7-1.4c2.3-0.9,4.3-2.3,6-4s3-3.9,3.9-6.5C1178.2,450.3,1178.7,447.4,1178.7,444.2z"/>
				</g>
				<g>
					<path class="st2" d="M1250.7,446.4v16.3c-2.4,1.6-4.9,2.9-7.5,3.7c-2.7,0.9-5.7,1.3-9,1.3c-3.7,0-7.1-0.6-10.1-1.7
						s-5.5-2.7-7.6-4.7c-2.1-2-3.7-4.5-4.8-7.4c-1.1-2.9-1.7-6.1-1.7-9.6c0-3.5,0.5-6.7,1.6-9.6c1.1-2.9,2.7-5.3,4.7-7.4
						c2.1-2,4.5-3.6,7.4-4.7c2.9-1.1,6.2-1.7,9.8-1.7c1.8,0,3.5,0.1,5,0.4c1.5,0.2,2.9,0.6,4.2,1.1c1.3,0.5,2.5,1,3.7,1.7
						c1.1,0.7,2.2,1.5,3.3,2.3l-0.9,1.4c-0.3,0.5-0.8,0.6-1.4,0.4c-0.3-0.1-0.8-0.4-1.4-0.9c-0.6-0.5-1.5-1-2.6-1.5
						c-1.1-0.5-2.4-1-4-1.4c-1.6-0.4-3.6-0.6-5.9-0.6c-3.1,0-5.8,0.5-8.3,1.4c-2.5,0.9-4.6,2.3-6.3,4.1c-1.7,1.8-3.1,3.9-4,6.5
						c-0.9,2.5-1.4,5.4-1.4,8.6c0,3.2,0.5,6.1,1.4,8.7c0.9,2.6,2.3,4.7,4.1,6.5c1.8,1.8,4,3.2,6.5,4.1c2.6,0.9,5.4,1.4,8.6,1.4
						c1.4,0,2.7-0.1,3.9-0.3c1.2-0.2,2.3-0.4,3.4-0.7c1.1-0.3,2.1-0.7,3.1-1.2c1-0.5,2-1,3.1-1.6v-12.3h-9c-0.2,0-0.4-0.1-0.6-0.2
						c-0.2-0.2-0.3-0.3-0.3-0.5v-1.8H1250.7z"/>
				</g>
				<g>
					<path class="st2" d="M1285.4,467.1h-3.4v-45.8h3.4V467.1z"/>
				</g>
				<g>
					<path class="st2" d="M1347.6,464.4l-0.1,2.7h-28.2v-45.8h28.2v2.7h-24.8l0,18.5h20.6v2.7h-20.6v19.1H1347.6z"/>
				</g>
				<g>
					<path class="st2" d="M1400.8,426.9c-0.2,0.4-0.5,0.6-0.9,0.6c-0.3,0-0.7-0.2-1.1-0.6c-0.5-0.4-1.1-0.8-1.9-1.3
						c-0.8-0.5-1.7-0.9-2.9-1.3c-1.2-0.4-2.6-0.6-4.3-0.6c-1.7,0-3.2,0.2-4.5,0.7c-1.3,0.5-2.4,1.1-3.3,1.9c-0.9,0.8-1.5,1.8-2,2.8
						c-0.5,1.1-0.7,2.2-0.7,3.4c0,1.6,0.3,2.8,1,3.8c0.7,1,1.6,1.9,2.7,2.6c1.1,0.7,2.4,1.3,3.8,1.8c1.4,0.5,2.9,1,4.3,1.4
						c1.5,0.5,2.9,1,4.3,1.6c1.4,0.6,2.7,1.3,3.8,2.2c1.1,0.9,2,1.9,2.7,3.2c0.7,1.3,1,2.8,1,4.7c0,1.9-0.3,3.7-1,5.4
						c-0.7,1.7-1.7,3.2-2.9,4.4c-1.3,1.3-2.9,2.2-4.7,3c-1.9,0.7-4,1.1-6.4,1.1c-3.1,0-5.8-0.5-8-1.6c-2.2-1.1-4.2-2.5-5.9-4.4
						l0.9-1.4c0.3-0.3,0.6-0.5,0.9-0.5c0.2,0,0.5,0.1,0.8,0.4c0.3,0.3,0.7,0.6,1.1,1c0.4,0.4,1,0.8,1.6,1.2c0.6,0.4,1.3,0.9,2.2,1.2
						c0.8,0.4,1.8,0.7,2.8,1s2.3,0.4,3.6,0.4c1.9,0,3.5-0.3,5-0.8c1.5-0.6,2.7-1.3,3.7-2.2c1-0.9,1.8-2.1,2.3-3.4
						c0.5-1.3,0.8-2.7,0.8-4.2c0-1.6-0.3-2.9-1-4s-1.6-1.9-2.7-2.6c-1.1-0.7-2.4-1.3-3.8-1.8c-1.4-0.5-2.9-0.9-4.3-1.4
						c-1.5-0.5-2.9-1-4.3-1.5c-1.4-0.6-2.7-1.3-3.8-2.1c-1.1-0.9-2-2-2.7-3.3s-1-2.9-1-4.9c0-1.5,0.3-3,0.9-4.4
						c0.6-1.4,1.5-2.7,2.6-3.8c1.2-1.1,2.6-2,4.3-2.6c1.7-0.7,3.6-1,5.8-1c2.4,0,4.6,0.4,6.6,1.1c1.9,0.8,3.7,1.9,5.3,3.5
						L1400.8,426.9z"/>
				</g>
			</g>
		</g>
	</g>
	<text transform="matrix(1 0 0 1 560.3506 103.6685)" class="st2 st3 st4">Powered by</text>
</g>
</svg>
