<svg id="Capa_1" data-name="Capa 1" xmlns="http://www.w3.org/2000/svg" viewBox="0 0 200 200"><defs><style>.cls-1{fill:#00ab5f;}</style></defs><path class="cls-1" d="M93.80362.94444h12.376c.49665.10784.98927.24166,1.49058.3195,5.08167.78908,10.23591,1.25789,15.23615,2.401,38.13239,8.71768,68.13041,40.63427,74.59233,79.22017.60442,3.60913,1.00568,7.25227,1.50128,10.87963v12.376a9.5624,9.5624,0,0,0-.29467,1.10986c-.66251,4.58255-1.045,9.22379-2.00594,13.74226-13.04978,61.36327-80.62621,95.30281-137.59334,69.16228A99.0142,99.0142,0,0,1,82.92844,2.44115C86.534,1.8278,90.17766,1.438,93.80362.94444Zm69.05974,159.55571a87.08175,87.08175,0,0,0-1.12816-122.32c-35.024-35.103-91.35713-34.18729-125.65353,2.328-33.12306,35.266-29.959,88.538,1.04845,119.94558,12.77278-26.1212,33.3629-41.20143,62.72114-41.25788C129.31571,119.1392,149.98109,134.20592,162.86336,160.50015ZM153.382,169.0684c-6.89188-21.31328-26.542-36.54-49.16219-38.265a56.39523,56.39523,0,0,0-57.04762,36.40712c-.50733,1.35743-.40442,2.10892.84673,2.98735q39.1925,27.51644,84.10833,10.98878A79.24763,79.24763,0,0,0,153.382,169.0684Z"/><path class="cls-1" d="M63.16229,68.83273A36.8296,36.8296,0,1,1,99.79773,105.752,36.9099,36.9099,0,0,1,63.16229,68.83273Zm11.60285.129A25.2271,25.2271,0,1,0,100.007,43.5894,25.25673,25.25673,0,0,0,74.76514,68.96168Z"/></svg>